<?xml version="1.0" standalone="no"?>
<!DOCTYPE svg PUBLIC "-//W3C//DTD SVG 20010904//EN"
 "http://www.w3.org/TR/2001/REC-SVG-20010904/DTD/svg10.dtd">
<svg version="1.0" xmlns="http://www.w3.org/2000/svg"
 width="269.000000pt" height="79.000000pt" viewBox="0 0 269.000000 79.000000"
 preserveAspectRatio="xMidYMid meet">
<metadata>
Created by potrace 1.16, written by Peter Selinger 2001-2019
</metadata>
<g transform="translate(0.000000,79.000000) scale(0.100000,-0.100000)"
fill="#000000" stroke="none">
<path d="M12 398 l3 -393 1335 0 1335 0 0 390 0 390 -1338 3 -1337 2 2 -392z
m2638 -3 l0 -355 -1302 2 -1303 3 -3 353 -2 352 1305 0 1305 0 0 -355z"/>
<path d="M1056 642 c-3 -3 -6 -115 -6 -249 l0 -243 44 0 43 0 7 61 c3 34 6
145 6 245 0 140 -3 184 -12 185 -50 6 -77 6 -82 1z"/>
<path d="M1215 643 c-6 -2 -9 -99 -7 -248 l3 -245 44 0 45 0 0 245 c0 226 -1
245 -17 246 -10 0 -27 2 -38 3 -12 1 -25 1 -30 -1z"/>
<path d="M338 625 c-27 -9 -64 -31 -83 -51 -108 -108 -110 -260 -6 -364 51
-51 96 -70 167 -70 46 0 129 38 164 75 l24 26 -31 30 -30 31 -40 -26 c-79 -52
-154 -41 -202 29 -32 47 -27 141 10 181 49 54 118 65 177 27 28 -17 45 -12 67
20 20 31 12 49 -33 75 -51 28 -126 35 -184 17z"/>
<path d="M1800 522 c0 -32 -5 -41 -26 -50 -33 -16 -31 -65 2 -70 20 -3 22 -10
26 -109 3 -101 5 -106 32 -130 24 -21 37 -23 90 -21 l61 3 3 38 c3 35 2 37
-27 37 -58 0 -61 5 -61 96 l0 84 46 0 45 0 -3 43 c-3 42 -3 42 -43 43 -39 1
-40 2 -43 37 l-3 37 -50 0 -49 0 0 -38z"/>
<path d="M744 476 c-17 -8 -44 -31 -60 -52 -26 -33 -29 -46 -29 -108 0 -59 4
-77 24 -105 46 -65 139 -87 217 -52 72 33 112 112 99 193 -8 44 -52 101 -96
124 -35 18 -114 18 -155 0z m130 -92 c51 -52 27 -146 -41 -160 -86 -17 -129
136 -49 174 35 18 62 13 90 -14z"/>
<path d="M1430 468 c-50 -34 -72 -71 -78 -127 -6 -68 19 -133 64 -168 46 -35
117 -42 169 -17 28 13 40 15 43 6 2 -7 21 -12 43 -12 l39 0 -2 167 -3 166 -33
1 c-19 1 -38 -4 -43 -11 -8 -8 -17 -8 -37 3 -43 22 -123 18 -162 -8z m144 -69
c30 -14 50 -67 41 -108 -9 -42 -40 -66 -87 -66 -82 0 -118 96 -59 156 31 31
64 36 105 18z"/>
<path d="M2114 472 c-71 -45 -105 -123 -85 -194 32 -112 156 -168 271 -122 46
18 44 15 29 48 -11 23 -15 24 -78 19 -59 -5 -69 -3 -96 18 l-30 24 120 5 120
5 3 34 c5 51 -24 115 -66 147 -48 38 -141 45 -188 16z"/>
</g>
</svg>
